<svg width="21" height="21" viewBox="0 0 21 21" fill="none" xmlns="http://www.w3.org/2000/svg">
<path d="M16.2084 15.1537C17.7873 13.4347 18.6335 11.1677 18.5672 8.83462C18.5009 6.50152 17.5273 4.28625 15.8534 2.65969C14.1141 0.973787 11.7929 0.0215853 9.37067 0.000362495C6.94848 -0.0208603 4.61095 0.890522 2.84237 2.54569C1.97674 3.35407 1.2801 4.32617 0.792817 5.40569C0.305534 6.48521 0.0372881 7.65068 0.00361851 8.83461C-0.030051 10.0185 0.171525 11.1974 0.59667 12.3028C1.02181 13.4083 1.66208 14.4184 2.48037 15.2747C4.15625 17.0244 6.4412 18.0622 8.86152 18.1728C11.2818 18.2834 13.6519 17.4583 15.4804 15.8687L19.7594 20.0557C19.8572 20.1501 19.9879 20.2028 20.1239 20.2028C20.2598 20.2028 20.3905 20.1501 20.4884 20.0557C20.5357 20.0092 20.5733 19.9537 20.5989 19.8925C20.6246 19.8313 20.6378 19.7656 20.6378 19.6992C20.6378 19.6328 20.6246 19.5671 20.5989 19.5059C20.5733 19.4447 20.5357 19.3892 20.4884 19.3427L16.2084 15.1537ZM3.44137 14.8067C2.67253 14.068 2.05986 13.1824 1.6397 12.2025C1.21954 11.2226 1.00044 10.1683 0.995404 9.10212C0.990368 8.03593 1.19949 6.9796 1.61038 5.99576C2.02127 5.01191 2.62554 4.1206 3.38737 3.37469C4.94563 1.84897 7.03683 0.990123 9.21763 0.980229C11.3984 0.970335 13.4973 1.81017 15.0694 3.32169L15.1234 3.37469C15.8876 4.11764 16.495 5.00628 16.9099 5.98807C17.3247 6.96987 17.5384 8.02487 17.5384 9.09069C17.5384 10.1565 17.3247 11.2115 16.9099 12.1933C16.495 13.1751 15.8876 14.0637 15.1234 14.8067C13.5568 16.3225 11.4623 17.1699 9.28237 17.1699C7.10249 17.1699 5.00798 16.3225 3.44137 14.8067Z" fill="#005485"/>
</svg>
